<svg viewBox="0 0 400 300" xmlns="http://www.w3.org/2000/svg" xmlns:xlink="http://www.w3.org/1999/xlink"><linearGradient id="a" gradientUnits="userSpaceOnUse" x1="129.92" x2="141.25" y1="151.83" y2="124.99"><stop offset="0" stop-color="#fff" stop-opacity="0"/><stop offset=".98" stop-color="#84210b"/></linearGradient><linearGradient id="b" x1="191.4" x2="201.69" xlink:href="#a" y1="189.9" y2="165.53"/><linearGradient id="c" x1="252.75" x2="261.58" xlink:href="#a" y1="222.63" y2="201.71"/><linearGradient id="d" x1="57.42" x2="64.55" xlink:href="#a" y1="169.12" y2="159.19"/><linearGradient id="e" x1="215.78" x2="221.13" xlink:href="#a" y1="261.77" y2="254.14"/><path d="m26.94 144.57 135.61-78.87a6.41 6.41 0 0 1 6.41 0l202.79 116.05a6.41 6.41 0 0 1 0 11.12l-129.66 74.88a20.93 20.93 0 0 1 -20.93 0l-194.16-112.08a6.41 6.41 0 0 1 -.06-11.1z" fill="#ffb3a6"/><path d="m169.6 82.76v-58.76h-3.9v58.49a4.91 4.91 0 0 0 3.9.27z" fill="#772e29"/><path d="m81.88 170.69 117.86 67.53 28.97-17.03-117.02-67.72z" fill="#a04d42"/><path d="m111.69 153.47v34.3l-29.81-17.08z" fill="#772e29"/><ellipse cx="168.11" cy="26.09" fill="#f84a4b" rx="14.8" ry="17.07" transform="matrix(.98162718 -.190809 .190809 .98162718 -1.89 32.55)"/><ellipse cx="168.11" cy="26.09" fill="none" rx="11.9" ry="13.73" stroke="#f2f2f2" stroke-miterlimit="10" transform="matrix(.98162718 -.190809 .190809 .98162718 -1.89 32.55)"/><path d="m169.12 17.52a2.2 2.2 0 0 0 -2.9 0c-.87.91-.57 2.17-.57 3.32v3.68 4.2a2.12 2.12 0 0 0 2.89 2.12c1.19-.45 1.09-1.63 1.09-2.69 0-2.52 0-5 0-7.57 0-.88.27-2-.3-2.82a1.62 1.62 0 0 0 -.21-.24z" fill="#fff"/><path d="m167.21 32.9a1.24 1.24 0 0 0 -.75.72c-.59 1.46 1 3.19 2.36 2a1.67 1.67 0 0 0 -.49-2.61 1.49 1.49 0 0 0 -1.12-.11z" fill="#fff"/><path d="m197.09 118.25-71.59 41.99-41.48-25.21 58.59-34.21" fill="url(#a)" opacity=".63"/><path d="m237.12 159.14a46.23 46.23 0 0 1 -14.26 4.35c-7.5 1.1-17.71 2.92-24.61-1.16-6.46-3.82-6.82-10.54-4.3-16.72l-47.95 27.74 50.75 28.15 55.93-32.8z" fill="url(#b)" opacity=".63"/><path d="m305.38 204.42-48.02 28.17-43.56-24.17 50.45-29.21" fill="url(#c)" opacity=".63"/><path d="m324.42 178.31-2.47-1.43-9.51.91.87-2.66-12.07-3.34h-37.24l-21.58 6.8v12.41l19.68 11.36h-1v12.45l13.6 7.85 11.3-6.48 7.27 4.2 11.71-6.81v-8.42l32.78-19.05h.09v-12.41zm-40.35 23.21-17.24-10 41.58-4.19z" fill="#68e1fd"/><path d="m324.42 178.31-2.47-1.43-9.51.91.87-2.66-12.07-3.34h-37.24l-21.58 6.8v12.41l19.68 11.36h-1v12.45l13.6 7.85 11.3-6.48 7.27 4.2 11.71-6.81v-8.42l32.78-19.05h.09v-12.41zm-40.35 23.21-17.24-10 41.58-4.19z" fill="#606060" opacity=".95"/><path d="m297.67 196.93 7.27 4.2-11.71 6.81-7.27-4.2-11.27 6.55-13.6-7.85 11.27-6.55-30-17.29 13.52-7.86 66-6.29 15.86 9.16zm-13.6-7.85 24.34-14.14-41.58 4.19 17.24 10" fill="#68e1fd"/><path d="m263.84 150.25v-14.14l-10 1.22-.2-.12a39.56 39.56 0 0 0 -5.57-2.63c-1.18-3.14-4-9.15-8.3-10.29-5.94-1.56-15.93.21-15.93.21l-22.06 9.64c.1 0 1.63.43 3.82.93a69.46 69.46 0 0 0 -12 5.55 55.39 55.39 0 0 0 -7.18 4.9l-8.84 1.07v14.35q.07 8.6 10.29 14.52 11.35 6.55 28.35 5.86a67.87 67.87 0 0 0 31.71-9.32q14.79-8.6 15.91-18.43a14.68 14.68 0 0 0 0-3.32zm-56.72-1.78a46.55 46.55 0 0 1 19.35-6.57q9.44-.82 15 2.37a10.9 10.9 0 0 1 2.58 2c-5.86 7.65-15.12 12.8-24.62 14.79-7.31 1.53-13.85 1.05-20-3.36-.59-.42-1.24-.9-1.92-1.41q2.76-3.84 9.62-7.83z" fill="#68e1fd"/><path d="m263.84 150.25v-14.14l-10 1.22-.2-.12a39.56 39.56 0 0 0 -5.57-2.63c-1.18-3.14-4-9.15-8.3-10.29-5.94-1.56-15.93.21-15.93.21l-22.06 9.64c.1 0 1.63.43 3.82.93a69.46 69.46 0 0 0 -12 5.55 55.39 55.39 0 0 0 -7.18 4.9l-8.84 1.07v14.35q.07 8.6 10.29 14.52 11.35 6.55 28.35 5.86a67.87 67.87 0 0 0 31.71-9.32q14.79-8.6 15.91-18.43a14.68 14.68 0 0 0 0-3.32zm-56.72-1.78a46.55 46.55 0 0 1 19.35-6.57q9.44-.82 15 2.37a10.9 10.9 0 0 1 2.58 2c-5.86 7.65-15.12 12.8-24.62 14.79-7.31 1.53-13.85 1.05-20-3.36-.59-.42-1.24-.9-1.92-1.41q2.76-3.84 9.62-7.83z" fill="#606060" opacity=".95"/><path d="m263.84 139.5q-1.12 9.83-15.91 18.43a67.87 67.87 0 0 1 -31.78 9.29q-17 .69-28.35-5.86t-10.2-16.36q1.15-9.85 15.93-18.44a67.75 67.75 0 0 1 31.77-9.27q17-.68 28.32 5.87t10.22 16.34zm-48.84 17.15a46.56 46.56 0 0 0 19.35-6.58q9.91-5.76 11.29-11.23t-4.16-8.67q-5.54-3.2-15-2.37a46.55 46.55 0 0 0 -19.35 6.57q-9.9 5.75-11.28 11.23t4.15 8.67q5.55 3.2 15 2.38" fill="#68e1fd"/><path d="m194.63 106.32-2.47-1.43-9.51.91.87-2.66-12.07-3.34h-37.26l-21.58 6.8v12.4l19.68 11.36h-1v12.45l13.6 7.85 11.27-6.55 7.27 4.2 11.71-6.81v-8.42l32.78-19.05h.09v-12.33zm-40.35 23.21-17.24-10 41.58-4.19z" fill="#68e1fd"/><path d="m194.63 106.32-2.47-1.43-9.51.91.87-2.66-12.07-3.34h-37.26l-21.58 6.8v12.4l19.68 11.36h-1v12.45l13.6 7.85 11.27-6.55 7.27 4.2 11.71-6.81v-8.42l32.78-19.05h.09v-12.33zm-40.35 23.21-17.24-10 41.58-4.19z" fill="#606060" opacity=".95"/><path d="m167.88 124.94 7.27 4.2-11.71 6.81-7.27-4.2-11.27 6.55-13.6-7.85 11.27-6.55-30-17.29 13.52-7.86 66-6.29 15.91 9.15zm-13.6-7.85 24.34-14.14-41.62 4.18 17.24 10" fill="#68e1fd"/><path d="m65.66 144.73-27.73 16.19 24.39 14.82 27.17-15.93c-8.24-4.6-16.49-9.23-23.83-15.08z" fill="url(#d)" opacity=".63"/><path d="m224.82 236-27.73 16.19 24.39 14.81 27.17-15.93c-8.24-4.56-16.46-9.19-23.83-15.07z" fill="url(#e)" opacity=".63"/><path d="m77.8 166.71 22.3-13.23a3.41 3.41 0 0 0 .12-5.8l-18.43-12a5.71 5.71 0 0 0 -6.31 0l-21.9 14.74a3.41 3.41 0 0 0 .15 5.75l17.44 10.53a6.47 6.47 0 0 0 6.63.01z" fill="#b24800"/><path d="m77.8 164.71 22.3-13.23a3.41 3.41 0 0 0 .12-5.8l-18.43-12a5.71 5.71 0 0 0 -6.31 0l-21.9 14.74a3.41 3.41 0 0 0 .15 5.75l17.43 10.46a6.47 6.47 0 0 0 6.64.08z" fill="#df5d00"/><path d="m74.09 111.7-11.84 37.45s-2.89 9.5 14.87 8.54 15.42-9.78 15.42-9.78l-11.85-36.21" fill="#ff8522"/><path d="m69.7 125.57s2.35 2.43 7.76 2.43c6.76 0 7.48-3.33 7.48-3.33l2.48 7.57s-1.78 4.27-10 4.13c-7.4-.12-10.3-2.78-10.3-2.78" fill="#fff"/><path d="m65.3 139.84a16.92 16.92 0 0 0 12 4.76c8.79-.1 12.09-6.35 12.09-6.35l2.61 8s-3.77 5.85-14.61 6.63c-10.22.73-14.61-5-14.61-5" fill="#fff"/><path d="m76.64 112h-2.53l-11.84 37.43s-2.69 8.86 13.11 8.6c.34-15.36 1.11-30.7 1.26-46.03z" fill="#ff8522" opacity=".15"/><ellipse cx="77.46" cy="111.98" fill="#ff9f57" rx="3.37" ry="1.93"/><path d="m233.64 260.5 22.3-13.23a3.41 3.41 0 0 0 .12-5.8l-18.43-12a5.71 5.71 0 0 0 -6.31 0l-21.9 14.74a3.41 3.41 0 0 0 .15 5.75l17.43 10.52a6.47 6.47 0 0 0 6.64.02z" fill="#b24800"/><path d="m233.64 258.49 22.3-13.23a3.41 3.41 0 0 0 .12-5.8l-18.43-12a5.71 5.71 0 0 0 -6.31 0l-21.9 14.74a3.41 3.41 0 0 0 .15 5.75l17.43 10.53a6.47 6.47 0 0 0 6.64.01z" fill="#df5d00"/><path d="m229.93 205.49-11.84 37.45s-2.89 9.5 14.87 8.54 15.42-9.78 15.42-9.78l-11.84-36.21" fill="#ff8522"/><path d="m225.54 219.36s2.35 2.43 7.76 2.43c6.76 0 7.48-3.33 7.48-3.33l2.48 7.57s-1.78 4.27-10 4.13c-7.4-.12-10.3-2.78-10.3-2.78" fill="#fff"/><path d="m221.15 233.63a16.92 16.92 0 0 0 12 4.76c8.79-.1 12.09-6.35 12.09-6.35l2.61 8s-3.77 5.85-14.61 6.63c-10.22.73-14.61-5-14.61-5" fill="#fff"/><path d="m232.49 205.77h-2.54l-11.84 37.45s-2.69 8.86 13.11 8.6c.34-15.36 1.11-30.7 1.27-46.05z" fill="#ff8522" opacity=".15"/><ellipse cx="233.3" cy="205.77" fill="#ff9f57" rx="3.37" ry="1.93"/></svg>