<?xml version="1.0" standalone="no"?>
<svg version="1.1" id="Layer_1_1_" xmlns="http://www.w3.org/2000/svg" xmlns:xlink="http://www.w3.org/1999/xlink" x="0px" y="0px" width="595.279px" height="595.279px" viewBox="0 0.001 595.279 595.279" enable-background="new 0 0.001 595.279 595.279" xml:space="preserve">
<path id="color_x5F_5" fill="#FFD2BB" d="M322.972,180.707c-0.851-1.903-2.68-3.044-4.629-3.138l-4.758,10.287v-13.465
	c-4.54,1.799-10.5,3.003-18.131,3.003c-6.561,0-12.621-1.183-17.569-3.091v13.552l-4.761-10.294c-2.143-0.111-4.23,1.07-5.156,3.146
	c-0.911,2.045,1.467,6.501,2.703,7.053l4.921,2.192v1.238c0,5.181,2.239,10.295,5.859,14.116c0.528,0.557,1.089,1.082,1.673,1.58
	l-1.84,6.094c0.022,0.025,0.045,0.048,0.067,0.073l-2.675,8.868h33.83l-2.504-8.462l-1.844-6.228c5.27-4.5,7.445-11.451,7.445-16.04
	v-1.354l4.662-2.077C322.961,186.559,324.172,183.402,322.972,180.707z M305.265,179.497c0.887,0.012,1.57,1.186,1.535,2.619
	c-0.033,1.439-0.785,2.591-1.662,2.581c-0.885-0.01-1.564-1.185-1.533-2.62C303.638,180.642,304.386,179.487,305.265,179.497z
	 M285.933,179.497c0.881-0.01,1.629,1.145,1.661,2.581c0.031,1.435-0.648,2.609-1.534,2.62c-0.877,0.01-1.628-1.142-1.661-2.581
	C284.364,180.683,285.047,179.51,285.933,179.497z"></path>
<path id="color_x5F_3" fill="#2D9CDB" d="M231.109,127.106c-4.349,0-6.625-3.42-6.625-6.798c0-1.747,0.584-3.387,1.644-4.62
	c1.225-1.425,2.947-2.178,4.981-2.178c4.349,0,6.625,3.42,6.625,6.798c0,1.747-0.584,3.387-1.644,4.62
	C234.865,126.353,233.143,127.106,231.109,127.106z M231.109,116.51c-1.149,0-2.06,0.381-2.706,1.133
	c-0.584,0.679-0.919,1.65-0.919,2.665c0,1.411,0.764,3.798,3.625,3.798c1.149,0,2.06-0.381,2.706-1.133
	c0.584-0.679,0.919-1.65,0.919-2.665C234.734,118.898,233.97,116.51,231.109,116.51z M146.386,146.426h-14.773v3h14.773V146.426z
	 M140.5,140.539h-3v14.773h3V140.539z M197.153,206.904h-22.158l11.079-19.07L197.153,206.904z M180.207,203.904h11.733
	l-5.867-10.098L180.207,203.904z M353.547,127.106c-4.35,0-6.625-3.42-6.625-6.798c0-1.747,0.584-3.387,1.645-4.62
	c1.225-1.425,2.947-2.178,4.98-2.178c4.35,0,6.625,3.42,6.625,6.798c0,1.747-0.584,3.387-1.645,4.62
	C357.302,126.353,355.58,127.106,353.547,127.106z M353.547,116.51c-1.149,0-2.06,0.381-2.706,1.133
	c-0.584,0.679-0.919,1.65-0.919,2.665c0,1.411,0.764,3.798,3.625,3.798c1.149,0,2.06-0.381,2.706-1.133
	c0.584-0.679,0.919-1.65,0.919-2.665C357.172,118.898,356.408,116.51,353.547,116.51z M466.386,146.426h-14.773v3h14.773V146.426z
	 M460.5,140.539h-3v14.773h3V140.539z M409.661,206.904h-22.158l11.079-19.07L409.661,206.904z M392.716,203.904h11.732
	l-5.866-10.098L392.716,203.904z M463,250.428v-12.813c0-1.104-0.896-2-2-2s-2,0.896-2,2v12.813c0,1.104,0.896,2,2,2
	S463,251.533,463,250.428z M463,296.874V284.06c0-1.104-0.896-2-2-2s-2,0.896-2,2v12.813c0,1.104,0.896,2,2,2
	S463,297.978,463,296.874z M446.183,267.245c0-1.104-0.896-2-2-2h-12.813c-1.104,0-2,0.896-2,2s0.896,2,2,2h12.813
	C445.288,269.245,446.183,268.349,446.183,267.245z M492.629,267.245c0-1.104-0.896-2-2-2h-12.813c-1.104,0-2,0.896-2,2s0.896,2,2,2
	h12.813C491.733,269.245,492.629,268.349,492.629,267.245z M450.523,256.768c0.781-0.781,0.781-2.047,0-2.828l-9.061-9.061
	c-0.781-0.781-2.047-0.781-2.828,0s-0.781,2.047,0,2.828l9.061,9.061c0.391,0.391,0.902,0.586,1.414,0.586
	S450.133,257.159,450.523,256.768z M483.365,289.61c0.781-0.781,0.781-2.047,0-2.828l-9.061-9.061c-0.781-0.781-2.047-0.781-2.828,0
	s-0.781,2.047,0,2.828l9.061,9.061c0.391,0.391,0.902,0.586,1.414,0.586S482.974,290.001,483.365,289.61z M441.463,289.61
	l9.061-9.061c0.781-0.781,0.781-2.047,0-2.828s-2.047-0.781-2.828,0l-9.061,9.061c-0.781,0.781-0.781,2.047,0,2.828
	c0.391,0.391,0.902,0.586,1.414,0.586S441.072,290.001,441.463,289.61z M474.304,256.768l9.061-9.061
	c0.781-0.781,0.781-2.047,0-2.828s-2.047-0.781-2.828,0l-9.061,9.061c-0.781,0.781-0.781,2.047,0,2.828
	c0.391,0.391,0.902,0.586,1.414,0.586S473.914,257.159,474.304,256.768z M141,250.428v-12.813c0-1.104-0.896-2-2-2s-2,0.896-2,2
	v12.813c0,1.104,0.896,2,2,2S141,251.533,141,250.428z M141,296.874V284.06c0-1.104-0.896-2-2-2s-2,0.896-2,2v12.813
	c0,1.104,0.896,2,2,2S141,297.978,141,296.874z M124.183,267.245c0-1.104-0.896-2-2-2h-12.813c-1.104,0-2,0.896-2,2s0.896,2,2,2
	h12.813C123.288,269.245,124.183,268.349,124.183,267.245z M170.629,267.245c0-1.104-0.896-2-2-2h-12.813c-1.104,0-2,0.896-2,2
	s0.896,2,2,2h12.813C169.733,269.245,170.629,268.349,170.629,267.245z M128.523,256.768c0.781-0.781,0.781-2.047,0-2.828
	l-9.061-9.061c-0.781-0.781-2.047-0.781-2.828,0s-0.781,2.047,0,2.828l9.061,9.061c0.391,0.391,0.902,0.586,1.414,0.586
	S128.133,257.159,128.523,256.768z M161.365,289.61c0.781-0.781,0.781-2.047,0-2.828l-9.061-9.061c-0.781-0.781-2.047-0.781-2.828,0
	s-0.781,2.047,0,2.828l9.061,9.061c0.391,0.391,0.902,0.586,1.414,0.586S160.974,290.001,161.365,289.61z M119.463,289.61
	l9.061-9.061c0.781-0.781,0.781-2.047,0-2.828s-2.047-0.781-2.828,0l-9.061,9.061c-0.781,0.781-0.781,2.047,0,2.828
	c0.391,0.391,0.902,0.586,1.414,0.586S119.072,290.001,119.463,289.61z M152.304,256.768l9.061-9.061
	c0.781-0.781,0.781-2.047,0-2.828s-2.047-0.781-2.828,0l-9.061,9.061c-0.781,0.781-0.781,2.047,0,2.828
	c0.391,0.391,0.902,0.586,1.414,0.586S151.914,257.159,152.304,256.768z"></path>
<path id="color_x5F_2" fill="#FBC02D" d="M313.586,174.391c-4.54,1.799-10.5,3.003-18.131,3.003c-6.561,0-12.621-1.183-17.569-3.091
	c-0.794-0.306-1.56-0.63-2.293-0.972c-0.743-0.346-1.456-0.709-2.132-1.088c-1.363-0.765-2.591-1.589-3.647-2.464
	c-1.061-0.868-1.955-1.792-2.662-2.75h0.104v0h56.5c-0.621,0.888-1.402,1.789-2.367,2.665c-0.947,0.869-2.078,1.713-3.38,2.51
	c-0.741,0.453-1.541,0.889-2.403,1.303C314.966,173.814,314.295,174.11,313.586,174.391z M303.605,182.078
	c-0.031,1.435,0.648,2.609,1.533,2.62c0.877,0.01,1.629-1.142,1.662-2.581c0.035-1.433-0.648-2.607-1.535-2.619
	C304.386,179.487,303.638,180.642,303.605,182.078z M258.976,336.291h26.368c-3.426-2.12-5.815-6.847-5.815-12.351v-12.498h32.656
	v12.498c0,5.504-2.391,10.23-5.816,12.351h25.749c-2.865-13.411-8.696-41.271-8.696-41.271l9.77-68.38
	c-4.09-0.38-8.059-0.27-11.639-0.27l-6.32,38.65h-39.371l-6.18-37.83c-0.88,0.13-1.75,0.26-2.63,0.4l-5.61-0.4
	c0,0-1.27,0.3-3.34,0.82l9.57,67.01C267.672,295.02,261.84,322.876,258.976,336.291z M299.023,133.044v27.248h24.737
	C323.342,146.241,312.707,134.765,299.023,133.044z M267.256,160.291h25.029v-27.298c-14.031,1.562-24.964,13.365-25.158,27.768
	h0.129V160.291z M284.399,182.116c0.033,1.439,0.784,2.591,1.661,2.581c0.886-0.01,1.565-1.185,1.534-2.62
	c-0.032-1.436-0.78-2.591-1.661-2.581C285.047,179.51,284.364,180.683,284.399,182.116z M476,404.001h-30v49h30V404.001z
	 M154,404.001h-30v49h30V404.001z M336.617,403.333l-86.889,1.342l0.756,48.994l86.888-1.342L336.617,403.333z"></path>
<path id="color_x5F_1" fill="#2f80ed" d="M306.369,336.291h-21.024c-3.426-2.12-5.815-6.847-5.815-12.351v-12.498h32.656v12.498
	C312.185,329.444,309.795,334.171,306.369,336.291z M277.885,174.303c-0.794-0.306-1.56-0.63-2.293-0.972
	c-0.743-0.346-1.456-0.709-2.132-1.088l-0.347,5.296l0.011,0.022l4.761,10.294V174.303z M275.861,265.02h39.371l6.32-38.65
	c-2.182,0-4.221-0.04-6.051-0.27v-4.18h-39.721v4.37c-1.979,0.29-4.029,0.58-6.1,0.9L275.861,265.02z M332.118,336.291h2.081
	c5.515-23.585,9.13-61.321,9.713-70.401h2.279l10.951,53.06c-2.886,1.982-4.781,5.304-4.781,9.07c0,3.302,1.458,6.258,3.764,8.271
	h40.843c2.303-2.017,3.765-4.97,3.765-8.271c0-5.061-3.423-9.313-8.075-10.595l-12.216-51.566l-1.09-4
	c-0.41-7.16-2.15-21.69-9.449-24.93c-1.48-0.66-3.27-1.35-5.23-2.03v-0.7c-4.949-2-11.939-3.83-19.369-5.42
	c-2.631-0.56-5.32-1.1-8-1.59c-1.381-0.25-2.75-0.43-4.111-0.55l-9.77,68.38C323.422,295.02,329.253,322.88,332.118,336.291z
	 M198.32,336.291h40.833c2.303-2.017,3.764-4.97,3.764-8.271c0-3.598-1.734-6.781-4.403-8.789l9.758-47.281
	c1,7.49,3.021,19.17,3.021,19.17c0.341,1.602,3.689,27.155,6.584,45.171h1.101c2.863-13.415,8.695-41.271,8.695-41.271l-9.57-67.01
	c-6.7,1.66-21.78,5.6-29.25,8.92c-3.88,1.72-6.82,6.64-8.95,11.93c-1.62,4.03-2.779,8.28-3.529,11.52
	c-0.75,3.24-1.101,5.48-1.101,5.48l-12.187,51.447c-4.888,1.119-8.538,5.485-8.538,10.714
	C194.547,331.325,196.011,334.278,198.32,336.291z M324.052,167.03v-6.738h-25.029v-31.47h-6.738v31.47h-25.029v6.738H324.052z
	 M318.357,177.539l-0.349-5.335c-0.741,0.453-1.541,0.889-2.403,1.303c-0.64,0.307-1.311,0.603-2.02,0.884v13.465l4.758-10.287
	L318.357,177.539z M502.639,343.291v60.71h-410v-60.71H502.639z M162.586,395.291l-12.577-43.29h-25.154l12.577,43.29H162.586z
	 M227.281,395.291l-12.577-43.29h-25.154l12.577,43.29H227.281z M291.977,395.291l-12.577-43.29h-25.154l12.577,43.29H291.977z
	 M356.672,395.291l-12.577-43.29h-25.153l12.577,43.29H356.672z M421.367,395.291l-12.577-43.29h-25.153l12.577,43.29H421.367z
	 M486.062,395.291l-12.577-43.29h-25.153l12.577,43.29H486.062z M105.524,491.499c6.507,0,10.366-3.728,10.366-10.464v-12.818
	h-5.232v12.622c0,4.349-1.864,6.147-5.101,6.147c-3.205,0-5.101-1.799-5.101-6.147v-12.622h-5.297v12.818
	C95.158,487.771,99.016,491.499,105.524,491.499z M136.88,468.217v13.897L125.5,468.217h-4.382v22.89h5.232v-13.897l11.412,13.897
	h4.349v-22.89H136.88z M147.537,491.106h10.398c7.488,0,12.622-4.513,12.622-11.445c0-6.932-5.134-11.444-12.622-11.444h-10.398
	V491.106z M152.834,486.758v-14.192h4.84c4.545,0,7.521,2.715,7.521,7.096c0,4.382-2.976,7.097-7.521,7.097H152.834z
	 M179.808,486.855v-5.297h10.627v-4.12h-10.627v-4.971h12.034v-4.251h-17.298v22.89h17.723v-4.251H179.808z M216.756,491.106
	l-5.134-7.357c2.976-1.275,4.708-3.793,4.708-7.227c0-5.134-3.826-8.306-9.94-8.306h-9.908v22.89h5.297v-6.376h4.611h0.262
	l4.414,6.376H216.756z M210.969,476.522c0,2.485-1.635,3.989-4.873,3.989h-4.316v-7.979h4.316
	C209.333,472.533,210.969,474.005,210.969,476.522z M240.721,491.499c3.989,0,7.292-1.439,9.45-4.088l-3.401-3.139
	c-1.537,1.798-3.466,2.714-5.755,2.714c-4.284,0-7.325-3.009-7.325-7.325c0-4.315,3.041-7.324,7.325-7.324
	c2.289,0,4.218,0.916,5.755,2.682l3.401-3.14c-2.158-2.616-5.461-4.055-9.417-4.055c-7.128,0-12.426,4.938-12.426,11.837
	C228.328,486.561,233.625,491.499,240.721,491.499z M264.327,491.499c7.194,0,12.524-5.003,12.524-11.838
	c0-6.834-5.33-11.837-12.524-11.837c-7.227,0-12.524,5.036-12.524,11.837C251.803,486.463,257.101,491.499,264.327,491.499z
	 M264.327,486.986c-4.087,0-7.161-2.976-7.161-7.325c0-4.349,3.074-7.324,7.161-7.324s7.161,2.976,7.161,7.324
	C271.489,484.01,268.415,486.986,264.327,486.986z M296.598,468.217v13.897l-11.379-13.897h-4.382v22.89h5.232v-13.897
	l11.412,13.897h4.35v-22.89H296.598z M314.777,491.499c6.539,0,9.711-3.271,9.711-7.096c0-8.404-13.309-5.494-13.309-9.712
	c0-1.438,1.21-2.616,4.35-2.616c2.027,0,4.218,0.589,6.344,1.799l1.635-4.022c-2.126-1.341-5.068-2.027-7.946-2.027
	c-6.507,0-9.646,3.237-9.646,7.129c0,8.502,13.309,5.559,13.309,9.843c0,1.405-1.274,2.452-4.414,2.452
	c-2.747,0-5.624-0.981-7.554-2.388l-1.798,3.99C307.485,490.42,311.147,491.499,314.777,491.499z M332.53,491.106h5.298v-18.573
	h7.324v-4.316h-19.946v4.316h7.324V491.106z M368.269,491.106l-5.135-7.357c2.977-1.275,4.709-3.793,4.709-7.227
	c0-5.134-3.825-8.306-9.94-8.306h-9.908v22.89h5.298v-6.376h4.61h0.262l4.414,6.376H368.269z M362.481,476.522
	c0,2.485-1.635,3.989-4.872,3.989h-4.316v-7.979h4.316C360.846,472.533,362.481,474.005,362.481,476.522z M382.196,491.499
	c6.507,0,10.365-3.728,10.365-10.464v-12.818h-5.231v12.622c0,4.349-1.864,6.147-5.102,6.147c-3.204,0-5.101-1.799-5.101-6.147
	v-12.622h-5.298v12.818C371.83,487.771,375.688,491.499,382.196,491.499z M408.745,491.499c3.99,0,7.292-1.439,9.45-4.088
	l-3.4-3.139c-1.537,1.798-3.466,2.714-5.755,2.714c-4.284,0-7.325-3.009-7.325-7.325c0-4.315,3.041-7.324,7.325-7.324
	c2.289,0,4.218,0.916,5.755,2.682l3.4-3.14c-2.158-2.616-5.46-4.055-9.417-4.055c-7.129,0-12.426,4.938-12.426,11.837
	C396.352,486.561,401.649,491.499,408.745,491.499z M426.269,491.106h5.298v-18.573h7.324v-4.316h-19.946v4.316h7.324V491.106z
	 M441.734,491.106h5.298v-22.89h-5.298V491.106z M463.543,491.499c7.194,0,12.524-5.003,12.524-11.838
	c0-6.834-5.33-11.837-12.524-11.837c-7.227,0-12.523,5.036-12.523,11.837C451.019,486.463,456.316,491.499,463.543,491.499z
	 M463.543,486.986c-4.087,0-7.161-2.976-7.161-7.325c0-4.349,3.074-7.324,7.161-7.324c4.088,0,7.161,2.976,7.161,7.324
	C470.704,484.01,467.631,486.986,463.543,486.986z M495.815,468.217v13.897l-11.38-13.897h-4.382v22.89h5.232v-13.897l11.412,13.897
	h4.349v-22.89H495.815z"></path>
</svg>