<?xml version="1.0" standalone="no"?>
<!DOCTYPE svg PUBLIC "-//W3C//DTD SVG 20010904//EN"
 "http://www.w3.org/TR/2001/REC-SVG-20010904/DTD/svg10.dtd">
<svg version="1.0" xmlns="http://www.w3.org/2000/svg"
 width="1312.000000pt" height="1312.000000pt" viewBox="0 0 1312.000000 1312.000000"
 preserveAspectRatio="xMidYMid meet">
<metadata>
Created by potrace 1.14, written by Peter Selinger 2001-2017
</metadata>
<g transform="translate(0.000000,1312.000000) scale(0.100000,-0.100000)"
fill="#000000" stroke="none">
<path d="M4887 11134 c-2 -2 -19 -4 -38 -5 -18 -2 -39 -6 -46 -11 -6 -5 -14
-5 -18 2 -3 6 -12 7 -18 3 -7 -4 -21 -9 -32 -10 -92 -13 -291 -69 -337 -94
-10 -5 -23 -9 -29 -9 -28 0 -320 -155 -366 -195 -15 -12 -24 -20 -83 -65 -71
-55 -226 -200 -213 -200 3 0 -4 -9 -17 -20 -13 -11 -21 -20 -18 -20 3 0 -15
-21 -39 -47 -24 -26 -46 -56 -49 -65 -3 -10 -9 -18 -13 -18 -5 0 -14 -13 -21
-30 -7 -16 -16 -30 -21 -30 -5 0 -9 -4 -9 -10 0 -5 -15 -33 -33 -62 -19 -29
-37 -60 -40 -68 -4 -8 -15 -28 -26 -45 -21 -35 -33 -56 -127 -220 -37 -66 -71
-122 -74 -125 -3 -3 -14 -21 -23 -40 -10 -19 -27 -51 -39 -70 -11 -19 -31 -53
-43 -75 -13 -22 -47 -80 -75 -130 -100 -170 -153 -263 -184 -318 -11 -21 -25
-46 -31 -55 -5 -9 -48 -82 -94 -162 -46 -80 -87 -147 -90 -150 -3 -3 -7 -12
-9 -20 -2 -8 -9 -22 -16 -30 -6 -8 -22 -35 -35 -60 -13 -25 -30 -52 -38 -61
-7 -9 -10 -19 -6 -22 3 -4 2 -7 -4 -7 -6 0 -13 -8 -17 -17 -3 -10 -23 -47 -45
-83 -22 -36 -48 -81 -57 -100 -10 -19 -20 -37 -23 -40 -4 -3 -11 -14 -17 -25
-46 -85 -79 -141 -122 -212 -28 -46 -49 -83 -46 -83 3 0 -9 -20 -26 -44 -16
-25 -30 -47 -30 -50 0 -3 -20 -39 -45 -79 -25 -41 -45 -80 -45 -86 0 -6 -4
-11 -10 -11 -5 0 -10 -7 -10 -15 0 -8 -4 -15 -10 -15 -5 0 -9 -3 -8 -7 2 -5
-22 -51 -53 -103 -30 -52 -69 -117 -85 -145 -16 -27 -33 -58 -39 -67 -5 -9
-20 -34 -31 -55 -103 -181 -236 -412 -249 -428 -8 -10 -15 -22 -15 -27 0 -4
-25 -49 -56 -100 -31 -50 -60 -101 -65 -113 -5 -11 -18 -33 -28 -50 -11 -16
-32 -52 -46 -80 -15 -27 -31 -55 -36 -61 -5 -6 -20 -31 -33 -55 -34 -65 -50
-92 -62 -109 -7 -8 -29 -46 -49 -85 -21 -38 -41 -72 -44 -75 -3 -3 -13 -18
-21 -35 -12 -25 -67 -122 -100 -175 -9 -16 -115 -198 -165 -285 -85 -148 -110
-192 -119 -210 -6 -11 -21 -34 -32 -50 -12 -17 -22 -34 -22 -38 -1 -4 -17 -34
-36 -66 -20 -32 -36 -64 -36 -70 0 -6 -4 -11 -9 -11 -5 0 -14 -15 -22 -32 -7
-18 -16 -35 -19 -38 -4 -3 -22 -32 -41 -65 -18 -33 -42 -73 -51 -90 -10 -16
-29 -51 -43 -77 -13 -26 -29 -49 -35 -53 -6 -4 -8 -11 -5 -16 4 -5 2 -9 -4 -9
-5 0 -13 -10 -17 -22 -3 -12 -21 -45 -40 -74 -18 -28 -35 -58 -36 -65 -2 -8
-6 -16 -9 -19 -24 -19 -143 -261 -154 -313 -4 -18 -10 -36 -14 -42 -16 -24
-64 -202 -76 -285 -17 -118 -20 -156 -19 -305 1 -191 6 -275 17 -275 4 0 7
-12 7 -27 0 -31 45 -216 59 -241 5 -10 10 -21 11 -27 5 -22 12 -41 21 -57 5
-10 9 -22 9 -28 0 -10 90 -198 112 -235 38 -62 64 -102 76 -113 6 -7 12 -17
12 -21 0 -5 13 -24 30 -42 16 -19 30 -37 30 -41 0 -26 278 -298 339 -332 9 -5
18 -12 21 -16 3 -3 28 -20 55 -38 28 -17 55 -35 60 -40 27 -22 223 -118 273
-133 23 -6 42 -16 42 -21 0 -4 8 -8 18 -8 9 0 37 -7 62 -16 25 -9 56 -18 70
-21 42 -8 55 -11 55 -13 0 -3 39 -11 70 -15 45 -6 97 -16 125 -23 14 -3 1388
-7 3055 -8 1667 -2 3044 -5 3060 -8 17 -3 35 -7 40 -8 6 -1 28 -5 50 -10 22
-4 74 -11 115 -15 101 -10 3503 -10 3605 0 107 10 257 41 358 74 45 15 84 27
87 28 16 5 55 22 135 60 50 23 94 42 99 42 5 1 12 5 15 10 3 5 28 22 56 38 27
16 54 32 60 37 5 4 46 34 90 67 133 98 295 268 385 401 8 12 27 39 41 59 14
20 33 52 43 71 42 81 90 175 91 180 1 3 9 23 19 45 27 62 58 148 60 170 2 11
6 27 9 35 9 22 27 97 32 128 2 15 6 38 9 52 31 140 28 468 -5 620 -5 25 -11
54 -13 65 -9 54 -50 186 -84 270 -26 66 -84 189 -91 195 -3 3 -14 21 -24 40
-9 19 -31 58 -48 85 -16 28 -33 58 -36 67 -3 10 -9 18 -14 18 -5 0 -9 4 -9 9
0 12 -121 224 -133 232 -4 3 -9 12 -10 20 -2 8 -10 25 -20 39 -9 13 -17 27
-17 31 0 4 -30 55 -66 115 -36 59 -66 113 -67 119 -1 5 -5 12 -8 15 -9 8 -79
130 -79 139 0 4 -9 16 -20 26 -11 10 -18 20 -15 23 3 3 0 11 -6 19 -16 18 -45
70 -66 116 -10 20 -21 37 -25 37 -5 0 -8 6 -8 14 0 8 -3 16 -7 18 -8 3 -46 69
-68 115 -5 13 -13 23 -17 23 -5 0 -8 4 -8 10 0 5 -20 44 -45 86 -25 41 -45 80
-45 85 0 5 -5 9 -11 9 -5 0 -8 4 -5 9 4 5 3 11 -1 13 -5 1 -19 23 -32 48 -14
25 -27 47 -30 50 -6 5 -48 80 -65 117 -6 13 -14 23 -18 23 -5 0 -8 4 -8 10 0
5 -26 54 -57 107 -32 54 -65 112 -73 128 -8 17 -18 32 -21 35 -3 3 -19 30 -36
60 -16 30 -44 79 -62 108 -17 29 -31 57 -31 62 0 6 -3 10 -8 10 -4 0 -13 15
-21 33 -8 17 -17 34 -20 37 -3 3 -17 25 -30 50 -14 25 -27 47 -30 50 -4 3 -12
16 -18 30 -7 14 -25 48 -41 75 -16 28 -52 90 -81 138 -28 49 -51 93 -51 98 0
5 -4 9 -8 9 -5 0 -17 18 -27 40 -10 22 -21 40 -25 40 -5 0 -11 11 -14 25 -4
14 -11 25 -16 25 -6 0 -10 5 -10 10 0 10 -75 111 -130 175 -42 49 -142 147
-199 195 -30 25 -59 50 -65 55 -6 6 -47 34 -91 63 -44 29 -85 55 -90 60 -15
10 -129 66 -196 96 -102 46 -303 106 -399 120 -19 2 -57 8 -85 12 -27 4 -72 8
-100 9 -27 0 -56 4 -62 8 -8 5 -13 3 -13 -4 0 -7 -5 -8 -12 -3 -14 10 -42 10
-95 1 -18 -3 -35 -1 -39 4 -3 5 -11 6 -17 2 -7 -4 -32 -9 -57 -10 -25 -1 -61
-5 -80 -9 -34 -6 -92 -14 -117 -16 -7 -1 -13 -5 -13 -10 0 -5 -5 -6 -10 -3 -6
4 -43 -3 -83 -15 -40 -12 -79 -23 -87 -25 -28 -5 -196 -72 -241 -96 -24 -13
-46 -23 -49 -24 -3 0 -18 -9 -35 -19 -16 -11 -47 -30 -67 -43 -21 -12 -42 -23
-48 -23 -5 0 -10 -4 -10 -8 0 -4 -15 -16 -32 -27 -18 -10 -37 -23 -43 -27
-138 -113 -173 -145 -243 -223 -77 -85 -166 -200 -174 -225 -5 -15 -27 15 -80
110 -14 25 -35 61 -46 80 -12 19 -27 46 -35 60 -24 44 -58 103 -100 175 -22
39 -40 72 -38 74 1 2 -1 7 -6 10 -11 7 -123 200 -123 211 0 5 -4 10 -9 12 -5
2 -11 10 -13 18 -2 8 -5 17 -8 20 -11 10 -80 132 -80 140 0 5 -3 10 -7 12 -5
2 -17 21 -28 43 -11 22 -22 42 -25 45 -3 3 -33 52 -65 110 -33 58 -65 114 -72
125 -7 11 -15 27 -19 35 -8 17 -79 136 -94 160 -6 8 -17 29 -26 45 -8 17 -23
44 -34 60 -19 31 -43 73 -76 135 -11 19 -21 37 -24 40 -5 5 -10 13 -52 89 -11
20 -28 47 -38 61 -10 14 -17 27 -17 30 0 3 -6 16 -15 30 -13 21 -52 87 -139
240 -8 14 -16 27 -19 30 -3 3 -13 21 -22 40 -10 19 -31 58 -48 85 -17 28 -42
70 -56 95 -14 25 -41 72 -60 105 -19 33 -37 67 -41 75 -4 8 -9 17 -13 20 -4 3
-24 37 -45 75 -20 39 -44 78 -53 88 -8 9 -12 17 -8 17 4 0 2 6 -3 13 -6 6 -45
59 -87 117 -85 116 -254 290 -354 364 -36 26 -73 54 -83 62 -9 8 -20 14 -23
14 -3 0 -18 8 -32 19 -106 74 -349 177 -512 216 -8 2 -35 8 -60 15 -25 6 -67
13 -95 15 -27 2 -50 4 -50 5 0 9 -380 22 -388 14z m278 -1525 c23 -11 56 -32
72 -47 32 -29 93 -115 93 -130 0 -5 7 -15 15 -22 8 -7 13 -16 10 -20 -3 -5 -1
-10 4 -12 4 -1 25 -34 46 -73 21 -38 53 -93 70 -121 18 -28 36 -60 39 -72 4
-12 12 -22 17 -22 5 0 9 -5 9 -11 0 -6 20 -45 45 -86 25 -40 45 -78 45 -83 0
-4 3 -10 8 -12 4 -1 15 -19 25 -38 9 -19 26 -48 37 -65 11 -16 24 -39 29 -50
12 -27 78 -137 90 -151 5 -7 8 -14 5 -17 -2 -2 2 -10 11 -17 8 -7 15 -16 15
-21 0 -5 11 -26 23 -47 13 -20 35 -57 49 -82 40 -72 99 -173 116 -200 9 -14
17 -27 17 -30 2 -11 68 -120 76 -126 5 -3 7 -10 4 -15 -4 -5 -1 -9 4 -9 6 0
11 -4 11 -9 0 -4 37 -71 82 -147 45 -76 90 -155 100 -174 10 -19 30 -53 43
-75 14 -22 28 -47 32 -55 4 -8 24 -44 46 -79 21 -35 43 -74 48 -85 9 -22 30
-57 39 -66 3 -3 15 -23 27 -45 42 -78 65 -120 73 -130 4 -5 17 -27 29 -47 43
-77 63 -112 171 -298 60 -105 110 -195 110 -200 0 -4 4 -10 8 -12 5 -1 22 -28
39 -58 47 -86 237 -414 243 -420 3 -3 13 -21 22 -40 23 -46 51 -94 61 -101 10
-8 -13 -56 -84 -174 -33 -55 -63 -108 -66 -117 -3 -10 -10 -18 -15 -18 -5 0
-6 -4 -3 -10 3 -5 1 -10 -4 -10 -6 0 -11 -5 -11 -10 0 -6 -11 -27 -23 -48 -13
-20 -35 -57 -49 -82 -59 -106 -71 -126 -78 -135 -4 -5 -21 -35 -37 -65 -26
-46 -74 -130 -226 -390 -11 -19 -29 -52 -41 -72 -12 -20 -45 -78 -73 -129 -29
-50 -53 -96 -53 -100 0 -5 -3 -9 -7 -9 -5 0 -13 -10 -19 -23 -5 -12 -26 -51
-45 -87 -32 -59 -92 -193 -95 -212 -1 -5 -3 -11 -4 -15 -1 -5 -2 -11 -1 -15 0
-5 -4 -8 -9 -8 -5 0 -9 -3 -8 -7 1 -5 -8 -46 -21 -92 -12 -46 -24 -93 -27
-105 -29 -151 -37 -229 -38 -356 0 -47 3 -126 7 -176 l7 -91 -2274 0 c-2196 0
-2275 1 -2324 19 -103 39 -187 146 -195 252 -7 77 10 134 73 241 13 22 30 51
37 65 8 14 25 43 38 65 14 22 32 56 42 75 9 19 20 37 24 40 3 3 18 28 33 55
14 28 31 57 36 65 36 57 89 150 84 150 -2 0 0 6 6 13 17 19 110 177 110 186 0
4 11 21 24 36 14 16 23 32 20 36 -2 4 1 13 8 21 13 13 29 40 65 108 10 19 20
37 23 40 10 10 90 153 90 161 0 5 4 9 9 9 5 0 12 11 15 25 4 14 11 25 16 25 6
0 10 6 10 13 0 7 11 29 25 50 14 20 23 37 19 37 -4 0 0 8 8 18 8 9 46 71 83
137 38 66 77 132 87 148 11 15 16 27 11 27 -4 0 -3 4 3 8 9 6 34 47 115 190
78 135 104 181 119 208 10 17 24 42 32 55 7 13 15 26 18 29 3 3 14 21 24 40
11 19 33 60 50 90 16 30 33 57 38 58 4 2 8 7 8 12 0 5 50 95 112 202 61 106
123 213 137 238 43 75 181 314 192 330 23 37 329 574 329 577 0 2 12 20 26 39
15 19 23 34 19 34 -5 0 -1 8 7 18 9 9 28 40 43 67 48 87 159 280 165 285 3 3
18 30 34 60 17 30 42 75 57 100 15 25 42 72 60 105 17 33 34 62 38 65 3 3 21
34 40 70 19 36 37 67 40 70 6 5 19 28 72 125 12 22 24 42 28 45 3 3 14 21 23
40 25 50 52 94 61 98 4 2 7 9 7 16 0 6 11 28 25 49 14 20 22 37 18 37 -4 0 -3
4 3 8 6 4 62 96 125 206 63 109 121 210 129 225 9 14 33 57 54 95 81 142 174
199 315 189 29 -2 72 -13 96 -24z m4655 -2855 c25 -10 62 -34 82 -53 38 -34
95 -119 90 -134 -1 -4 5 -10 13 -13 8 -4 15 -11 15 -16 0 -6 25 -52 55 -103
30 -52 55 -98 55 -103 0 -5 7 -16 17 -23 9 -8 22 -29 30 -47 7 -17 29 -57 48
-87 19 -30 35 -56 35 -59 0 -3 20 -39 45 -79 25 -41 45 -77 45 -80 0 -4 18
-34 40 -68 22 -34 40 -66 40 -71 0 -5 5 -14 10 -21 12 -14 104 -168 107 -180
3 -7 16 -31 50 -84 10 -16 18 -30 18 -33 1 -4 24 -44 86 -148 9 -15 27 -48 41
-73 46 -83 53 -94 58 -99 3 -3 11 -16 18 -30 7 -14 23 -43 37 -65 13 -22 27
-47 31 -55 4 -8 52 -91 106 -183 54 -93 98 -173 98 -178 0 -5 3 -9 8 -9 4 0
13 -14 21 -31 8 -18 34 -64 57 -103 24 -38 44 -76 44 -83 0 -7 4 -13 10 -13 5
0 16 -15 23 -32 8 -18 33 -63 56 -101 22 -37 41 -69 41 -71 0 -2 25 -46 56
-97 31 -51 60 -104 65 -116 5 -13 13 -23 19 -23 5 0 10 -8 10 -17 0 -9 6 -24
14 -32 8 -9 33 -54 56 -100 39 -76 43 -91 43 -155 -1 -123 -62 -220 -172 -273
l-56 -27 -669 -1 -668 -1 6 51 c18 133 20 170 20 305 0 133 -4 196 -19 290 -8
45 -44 201 -52 220 -3 8 -8 23 -10 33 -1 10 -10 31 -18 47 -8 16 -15 33 -15
39 0 5 -14 40 -32 78 -17 37 -32 70 -33 73 -4 13 -26 57 -35 70 -5 8 -42 71
-81 140 -40 69 -80 140 -90 158 -11 17 -29 49 -40 70 -12 20 -30 49 -40 64
-11 14 -19 29 -19 33 0 3 -31 60 -70 125 -38 65 -70 123 -70 129 0 6 -4 11 -9
11 -5 0 -11 8 -14 18 -4 9 -17 35 -30 57 -26 44 -194 333 -235 405 -14 25 -34
59 -44 75 -10 17 -22 40 -27 52 -5 11 -15 24 -20 28 -11 6 32 98 77 165 13 19
28 44 33 55 5 11 23 43 39 70 17 28 38 65 47 83 9 17 21 32 25 32 5 0 7 4 3 9
-3 5 0 16 7 23 7 8 20 27 29 43 57 107 132 227 158 254 30 31 97 71 125 75 9
1 18 5 22 8 12 13 140 0 184 -18z m-1537 -2432 c108 -191 111 -197 120 -200 4
-2 7 -9 7 -16 0 -7 18 -41 40 -75 22 -34 40 -68 40 -75 0 -8 7 -17 16 -20 9
-4 14 -9 11 -13 -4 -3 2 -18 12 -32 27 -38 49 -120 45 -170 -10 -128 -99 -245
-209 -276 -46 -13 -426 -15 -450 -2 -22 12 -103 97 -91 97 2 0 -4 16 -13 36
-23 46 -26 147 -7 200 8 23 47 97 87 165 39 68 85 149 102 179 16 30 33 60 37
65 8 10 25 40 78 135 14 25 33 57 43 72 11 14 19 30 19 35 0 10 21 33 30 33 3
0 40 -62 83 -138z"/>
</g>
</svg>
